<?xml version="1.0" encoding="UTF-8" standalone="no"?>
<!DOCTYPE svg PUBLIC "-//W3C//DTD SVG 1.1//EN"
 "http://www.w3.org/Graphics/SVG/1.1/DTD/svg11.dtd">
<!-- Generated by graphviz version 2.40.1 (20161225.0304)
 -->
<!-- Title: G Pages: 1 -->
<svg width="672pt" height="165pt"
 viewBox="0.00 0.00 672.20 164.74" xmlns="http://www.w3.org/2000/svg" xmlns:xlink="http://www.w3.org/1999/xlink">
<g id="graph0" class="graph" transform="scale(1 1) rotate(0) translate(21.6 143.145)">
<title>G</title>
<polygon fill="#111111" stroke="transparent" points="-21.6,21.6 -21.6,-143.145 650.6,-143.145 650.6,21.6 -21.6,21.6"/>
<!-- ../app&#45;components/templates/templates.js -->
<g id="node1" class="node">
<title>../app&#45;components/templates/templates.js</title>
<polygon fill="none" stroke="#c6c5fe" points="290,-121.545 90,-121.545 90,-119.4339 87.8889,-119.4339 87.8889,-117.3227 90,-117.3227 90,-106.7672 87.8889,-106.7672 87.8889,-104.6561 90,-104.6561 90,-102.545 290,-102.545 290,-121.545"/>
<polyline fill="none" stroke="#c6c5fe" points="90,-119.4339 92.1111,-119.4339 92.1111,-117.3227 90,-117.3227 "/>
<polyline fill="none" stroke="#c6c5fe" points="90,-106.7672 92.1111,-106.7672 92.1111,-104.6561 90,-104.6561 "/>
<text text-anchor="middle" x="190" y="-109.545" font-family="Arial" font-size="10.00" fill="#c6c5fe">../app&#45;components/templates/templates.js</text>
</g>
<!-- common/tools.js -->
<g id="node2" class="node">
<title>common/tools.js</title>
<polygon fill="none" stroke="#c6c5fe" points="415,-83.545 326,-83.545 326,-81.4339 323.8889,-81.4339 323.8889,-79.3227 326,-79.3227 326,-68.7672 323.8889,-68.7672 323.8889,-66.6561 326,-66.6561 326,-64.545 415,-64.545 415,-83.545"/>
<polyline fill="none" stroke="#c6c5fe" points="326,-81.4339 328.1111,-81.4339 328.1111,-79.3227 326,-79.3227 "/>
<polyline fill="none" stroke="#c6c5fe" points="326,-68.7672 328.1111,-68.7672 328.1111,-66.6561 326,-66.6561 "/>
<text text-anchor="middle" x="370.5" y="-71.545" font-family="Arial" font-size="10.00" fill="#c6c5fe">common/tools.js</text>
</g>
<!-- ../app&#45;components/templates/templates.js&#45;&gt;common/tools.js -->
<g id="edge1" class="edge">
<title>../app&#45;components/templates/templates.js&#45;&gt;common/tools.js</title>
<path fill="none" stroke="#757575" d="M235.5478,-102.456C259.9803,-97.3123 290.2605,-90.9375 315.9435,-85.5306"/>
<polygon fill="#757575" stroke="#757575" points="316.8393,-88.9188 325.9037,-83.4337 315.3972,-82.0689 316.8393,-88.9188"/>
</g>
<!-- libs/index.js -->
<g id="node4" class="node">
<title>libs/index.js</title>
<polygon fill="none" stroke="#c6c5fe" points="519,-45.545 451,-45.545 451,-43.4339 448.8889,-43.4339 448.8889,-41.3227 451,-41.3227 451,-30.7672 448.8889,-30.7672 448.8889,-28.6561 451,-28.6561 451,-26.545 519,-26.545 519,-45.545"/>
<polyline fill="none" stroke="#c6c5fe" points="451,-43.4339 453.1111,-43.4339 453.1111,-41.3227 451,-41.3227 "/>
<polyline fill="none" stroke="#c6c5fe" points="451,-30.7672 453.1111,-30.7672 453.1111,-28.6561 451,-28.6561 "/>
<text text-anchor="middle" x="485" y="-33.545" font-family="Arial" font-size="10.00" fill="#c6c5fe">libs/index.js</text>
</g>
<!-- common/tools.js&#45;&gt;libs/index.js -->
<g id="edge4" class="edge">
<title>common/tools.js&#45;&gt;libs/index.js</title>
<path fill="none" stroke="#757575" d="M399.3932,-64.456C413.6316,-59.7305 431.0008,-53.9661 446.3634,-48.8676"/>
<polygon fill="#757575" stroke="#757575" points="447.7276,-52.1027 456.1161,-45.6309 445.5226,-45.459 447.7276,-52.1027"/>
</g>
<!-- ../app&#45;components/youtube/youtube.js -->
<g id="node3" class="node">
<title>../app&#45;components/youtube/youtube.js</title>
<polygon fill="none" stroke="#c6c5fe" points="281.5,-45.545 98.5,-45.545 98.5,-43.4339 96.3889,-43.4339 96.3889,-41.3227 98.5,-41.3227 98.5,-30.7672 96.3889,-30.7672 96.3889,-28.6561 98.5,-28.6561 98.5,-26.545 281.5,-26.545 281.5,-45.545"/>
<polyline fill="none" stroke="#c6c5fe" points="98.5,-43.4339 100.6111,-43.4339 100.6111,-41.3227 98.5,-41.3227 "/>
<polyline fill="none" stroke="#c6c5fe" points="98.5,-30.7672 100.6111,-30.7672 100.6111,-28.6561 98.5,-28.6561 "/>
<text text-anchor="middle" x="190" y="-33.545" font-family="Arial" font-size="10.00" fill="#c6c5fe">../app&#45;components/youtube/youtube.js</text>
</g>
<!-- ../app&#45;components/youtube/youtube.js&#45;&gt;common/tools.js -->
<g id="edge2" class="edge">
<title>../app&#45;components/youtube/youtube.js&#45;&gt;common/tools.js</title>
<path fill="none" stroke="#757575" d="M235.5478,-45.634C259.9803,-50.7777 290.2605,-57.1524 315.9435,-62.5594"/>
<polygon fill="#757575" stroke="#757575" points="315.3972,-66.021 325.9037,-64.6563 316.8393,-59.1712 315.3972,-66.021"/>
</g>
<!-- ../app&#45;components/youtube/youtube.js&#45;&gt;libs/index.js -->
<g id="edge3" class="edge">
<title>../app&#45;components/youtube/youtube.js&#45;&gt;libs/index.js</title>
<path fill="none" stroke="#757575" d="M281.7228,-36.045C334.5806,-36.045 398.6457,-36.045 440.5436,-36.045"/>
<polygon fill="#757575" stroke="#757575" points="440.6978,-39.5451 450.6977,-36.045 440.6977,-32.5451 440.6978,-39.5451"/>
</g>
<!-- libs/axios.js -->
<g id="node5" class="node">
<title>libs/axios.js</title>
<polygon fill="none" stroke="#cfffac" points="626,-64.545 558,-64.545 558,-62.4339 555.8889,-62.4339 555.8889,-60.3227 558,-60.3227 558,-49.7672 555.8889,-49.7672 555.8889,-47.6561 558,-47.6561 558,-45.545 626,-45.545 626,-64.545"/>
<polyline fill="none" stroke="#cfffac" points="558,-62.4339 560.1111,-62.4339 560.1111,-60.3227 558,-60.3227 "/>
<polyline fill="none" stroke="#cfffac" points="558,-49.7672 560.1111,-49.7672 560.1111,-47.6561 558,-47.6561 "/>
<text text-anchor="middle" x="592" y="-52.545" font-family="Arial" font-size="10.00" fill="#cfffac">libs/axios.js</text>
</g>
<!-- libs/index.js&#45;&gt;libs/axios.js -->
<g id="edge5" class="edge">
<title>libs/index.js&#45;&gt;libs/axios.js</title>
<path fill="none" stroke="#757575" d="M519.1497,-42.1089C528.2225,-43.72 538.1534,-45.4834 547.6835,-47.1757"/>
<polygon fill="#757575" stroke="#757575" points="547.3498,-50.6711 557.8078,-48.9735 548.5737,-43.7789 547.3498,-50.6711"/>
</g>
<!-- libs/events.js -->
<g id="node6" class="node">
<title>libs/events.js</title>
<polygon fill="none" stroke="#cfffac" points="629,-27.545 555,-27.545 555,-25.4339 552.8889,-25.4339 552.8889,-23.3227 555,-23.3227 555,-12.7672 552.8889,-12.7672 552.8889,-10.6561 555,-10.6561 555,-8.545 629,-8.545 629,-27.545"/>
<polyline fill="none" stroke="#cfffac" points="555,-25.4339 557.1111,-25.4339 557.1111,-23.3227 555,-23.3227 "/>
<polyline fill="none" stroke="#cfffac" points="555,-12.7672 557.1111,-12.7672 557.1111,-10.6561 555,-10.6561 "/>
<text text-anchor="middle" x="592" y="-15.545" font-family="Arial" font-size="10.00" fill="#cfffac">libs/events.js</text>
</g>
<!-- libs/index.js&#45;&gt;libs/events.js -->
<g id="edge6" class="edge">
<title>libs/index.js&#45;&gt;libs/events.js</title>
<path fill="none" stroke="#757575" d="M519.1497,-30.3002C527.3261,-28.9247 536.1994,-27.432 544.8482,-25.977"/>
<polygon fill="#757575" stroke="#757575" points="545.5621,-29.4062 554.8429,-24.2957 544.4008,-22.5032 545.5621,-29.4062"/>
</g>
<!-- main.js -->
<g id="node7" class="node">
<title>main.js</title>
<polygon fill="none" stroke="#c6c5fe" points="54,-64.545 0,-64.545 0,-62.4339 -2.1111,-62.4339 -2.1111,-60.3227 0,-60.3227 0,-49.7672 -2.1111,-49.7672 -2.1111,-47.6561 0,-47.6561 0,-45.545 54,-45.545 54,-64.545"/>
<polyline fill="none" stroke="#c6c5fe" points="0,-62.4339 2.1111,-62.4339 2.1111,-60.3227 0,-60.3227 "/>
<polyline fill="none" stroke="#c6c5fe" points="0,-49.7672 2.1111,-49.7672 2.1111,-47.6561 0,-47.6561 "/>
<text text-anchor="middle" x="27" y="-52.545" font-family="Arial" font-size="10.00" fill="#c6c5fe">main.js</text>
</g>
<!-- main.js&#45;&gt;../app&#45;components/templates/templates.js -->
<g id="edge7" class="edge">
<title>main.js&#45;&gt;../app&#45;components/templates/templates.js</title>
<path fill="none" stroke="#757575" d="M42.551,-64.5791C55.0048,-71.8682 73.1226,-81.711 90,-88.045 102.5877,-92.7691 116.4228,-96.7906 129.6822,-100.1141"/>
<polygon fill="#757575" stroke="#757575" points="129.138,-103.583 139.6793,-102.5197 130.7757,-96.7773 129.138,-103.583"/>
</g>
<!-- main.js&#45;&gt;common/tools.js -->
<g id="edge9" class="edge">
<title>main.js&#45;&gt;common/tools.js</title>
<path fill="none" stroke="#757575" d="M54.241,-56.5517C110.6189,-59.6702 241.0412,-66.8842 315.5978,-71.0082"/>
<polygon fill="#757575" stroke="#757575" points="315.5557,-74.5111 325.7338,-71.5688 315.9424,-67.5218 315.5557,-74.5111"/>
</g>
<!-- main.js&#45;&gt;../app&#45;components/youtube/youtube.js -->
<g id="edge8" class="edge">
<title>main.js&#45;&gt;../app&#45;components/youtube/youtube.js</title>
<path fill="none" stroke="#757575" d="M54.2825,-51.8648C66.7412,-50.4126 82.2934,-48.5997 98.3799,-46.7246"/>
<polygon fill="#757575" stroke="#757575" points="98.9147,-50.1861 108.4422,-45.5517 98.1042,-43.2331 98.9147,-50.1861"/>
</g>
<!-- main.js&#45;&gt;libs/index.js -->
<g id="edge10" class="edge">
<title>main.js&#45;&gt;libs/index.js</title>
<path fill="none" stroke="#757575" d="M38.6273,-45.3327C50.6238,-35.9974 70.311,-22.5232 90,-17.045 213.5009,17.3178 366.9772,-8.553 441.0034,-25.0729"/>
<polygon fill="#757575" stroke="#757575" points="440.382,-28.521 450.9102,-27.3346 441.94,-21.6966 440.382,-28.521"/>
</g>
</g>
</svg>
