<?xml version="1.0" encoding="UTF-8" standalone="no"?>
<!DOCTYPE svg PUBLIC "-//W3C//DTD SVG 1.1//EN"
 "http://www.w3.org/Graphics/SVG/1.1/DTD/svg11.dtd">
<!-- Generated by graphviz version 2.40.1 (20161225.0304)
 -->
<!-- Title: G Pages: 1 -->
<svg width="428pt" height="291pt"
 viewBox="0.00 0.00 427.94 291.20" xmlns="http://www.w3.org/2000/svg" xmlns:xlink="http://www.w3.org/1999/xlink">
<g id="graph0" class="graph" transform="scale(1 1) rotate(0) translate(21.6 269.6)">
<title>G</title>
<polygon fill="#111111" stroke="transparent" points="-21.6,21.6 -21.6,-269.6 406.338,-269.6 406.338,21.6 -21.6,21.6"/>
<!-- ../app&#45;components/youtube/youtube.js -->
<g id="node1" class="node">
<title>../app&#45;components/youtube/youtube.js</title>
<polygon fill="none" stroke="#c6c5fe" points="275.2641,-248 90.2449,-248 90.2449,-245.7778 88.0226,-245.7778 88.0226,-243.5556 90.2449,-243.5556 90.2449,-232.4444 88.0226,-232.4444 88.0226,-230.2222 90.2449,-230.2222 90.2449,-228 275.2641,-228 275.2641,-248"/>
<polyline fill="none" stroke="#c6c5fe" points="90.2449,-245.7778 92.4671,-245.7778 92.4671,-243.5556 90.2449,-243.5556 "/>
<polyline fill="none" stroke="#c6c5fe" points="90.2449,-232.4444 92.4671,-232.4444 92.4671,-230.2222 90.2449,-230.2222 "/>
<text text-anchor="middle" x="182.7545" y="-235" font-family="Arial" font-size="10.00" fill="#c6c5fe">../app&#45;components/youtube/youtube.js</text>
</g>
<!-- libs/lodash.js -->
<g id="node2" class="node">
<title>libs/lodash.js</title>
<polygon fill="none" stroke="#cfffac" points="384.8529,-134 311.3941,-134 311.3941,-131.7778 309.1719,-131.7778 309.1719,-129.5556 311.3941,-129.5556 311.3941,-118.4444 309.1719,-118.4444 309.1719,-116.2222 311.3941,-116.2222 311.3941,-114 384.8529,-114 384.8529,-134"/>
<polyline fill="none" stroke="#cfffac" points="311.3941,-131.7778 313.6164,-131.7778 313.6164,-129.5556 311.3941,-129.5556 "/>
<polyline fill="none" stroke="#cfffac" points="311.3941,-118.4444 313.6164,-118.4444 313.6164,-116.2222 311.3941,-116.2222 "/>
<text text-anchor="middle" x="348.1235" y="-121" font-family="Arial" font-size="10.00" fill="#cfffac">libs/lodash.js</text>
</g>
<!-- ../app&#45;components/youtube/youtube.js&#45;&gt;libs/lodash.js -->
<g id="edge1" class="edge">
<title>../app&#45;components/youtube/youtube.js&#45;&gt;libs/lodash.js</title>
<path fill="none" stroke="#757575" d="M257.052,-227.8823C263.5395,-225.5015 269.7994,-222.5805 275.509,-219 305.0968,-200.4455 327.1562,-165.2505 338.8041,-143.2991"/>
<polygon fill="#757575" stroke="#757575" points="341.992,-144.7518 343.4128,-134.2526 335.7547,-141.5742 341.992,-144.7518"/>
</g>
<!-- common/ajax.js -->
<g id="node3" class="node">
<title>common/ajax.js</title>
<polygon fill="none" stroke="#c6c5fe" points="225.7047,-210 139.8043,-210 139.8043,-207.7778 137.5821,-207.7778 137.5821,-205.5556 139.8043,-205.5556 139.8043,-194.4444 137.5821,-194.4444 137.5821,-192.2222 139.8043,-192.2222 139.8043,-190 225.7047,-190 225.7047,-210"/>
<polyline fill="none" stroke="#c6c5fe" points="139.8043,-207.7778 142.0265,-207.7778 142.0265,-205.5556 139.8043,-205.5556 "/>
<polyline fill="none" stroke="#c6c5fe" points="139.8043,-194.4444 142.0265,-194.4444 142.0265,-192.2222 139.8043,-192.2222 "/>
<text text-anchor="middle" x="182.7545" y="-197" font-family="Arial" font-size="10.00" fill="#c6c5fe">common/ajax.js</text>
</g>
<!-- common/ajax.js&#45;&gt;libs/lodash.js -->
<g id="edge2" class="edge">
<title>common/ajax.js&#45;&gt;libs/lodash.js</title>
<path fill="none" stroke="#757575" d="M225.6169,-195.4585C241.7806,-192.668 259.9972,-188.1851 275.509,-181 296.6614,-171.2022 317.2189,-154.1372 331.0291,-141.226"/>
<polygon fill="#757575" stroke="#757575" points="333.5593,-143.6484 338.3341,-134.1905 328.7034,-138.6065 333.5593,-143.6484"/>
</g>
<!-- common/detectIE.js -->
<g id="node4" class="node">
<title>common/detectIE.js</title>
<polygon fill="none" stroke="#cfffac" points="234.5497,-172 130.9593,-172 130.9593,-169.7778 128.7371,-169.7778 128.7371,-167.5556 130.9593,-167.5556 130.9593,-156.4444 128.7371,-156.4444 128.7371,-154.2222 130.9593,-154.2222 130.9593,-152 234.5497,-152 234.5497,-172"/>
<polyline fill="none" stroke="#cfffac" points="130.9593,-169.7778 133.1815,-169.7778 133.1815,-167.5556 130.9593,-167.5556 "/>
<polyline fill="none" stroke="#cfffac" points="130.9593,-156.4444 133.1815,-156.4444 133.1815,-154.2222 130.9593,-154.2222 "/>
<text text-anchor="middle" x="182.7545" y="-159" font-family="Arial" font-size="10.00" fill="#cfffac">common/detectIE.js</text>
</g>
<!-- common/locationSearch.js -->
<g id="node5" class="node">
<title>common/locationSearch.js</title>
<polygon fill="none" stroke="#cfffac" points="249.4947,-134 116.0143,-134 116.0143,-131.7778 113.7921,-131.7778 113.7921,-129.5556 116.0143,-129.5556 116.0143,-118.4444 113.7921,-118.4444 113.7921,-116.2222 116.0143,-116.2222 116.0143,-114 249.4947,-114 249.4947,-134"/>
<polyline fill="none" stroke="#cfffac" points="116.0143,-131.7778 118.2365,-131.7778 118.2365,-129.5556 116.0143,-129.5556 "/>
<polyline fill="none" stroke="#cfffac" points="116.0143,-118.4444 118.2365,-118.4444 118.2365,-116.2222 116.0143,-116.2222 "/>
<text text-anchor="middle" x="182.7545" y="-121" font-family="Arial" font-size="10.00" fill="#cfffac">common/locationSearch.js</text>
</g>
<!-- common/ready.js -->
<g id="node6" class="node">
<title>common/ready.js</title>
<polygon fill="none" stroke="#cfffac" points="228.8726,-96 136.6364,-96 136.6364,-93.7778 134.4142,-93.7778 134.4142,-91.5556 136.6364,-91.5556 136.6364,-80.4444 134.4142,-80.4444 134.4142,-78.2222 136.6364,-78.2222 136.6364,-76 228.8726,-76 228.8726,-96"/>
<polyline fill="none" stroke="#cfffac" points="136.6364,-93.7778 138.8586,-93.7778 138.8586,-91.5556 136.6364,-91.5556 "/>
<polyline fill="none" stroke="#cfffac" points="136.6364,-80.4444 138.8586,-80.4444 138.8586,-78.2222 136.6364,-78.2222 "/>
<text text-anchor="middle" x="182.7545" y="-83" font-family="Arial" font-size="10.00" fill="#cfffac">common/ready.js</text>
</g>
<!-- common/render.js -->
<g id="node7" class="node">
<title>common/render.js</title>
<polygon fill="none" stroke="#c6c5fe" points="230.7605,-58 134.7485,-58 134.7485,-55.7778 132.5263,-55.7778 132.5263,-53.5556 134.7485,-53.5556 134.7485,-42.4444 132.5263,-42.4444 132.5263,-40.2222 134.7485,-40.2222 134.7485,-38 230.7605,-38 230.7605,-58"/>
<polyline fill="none" stroke="#c6c5fe" points="134.7485,-55.7778 136.9707,-55.7778 136.9707,-53.5556 134.7485,-53.5556 "/>
<polyline fill="none" stroke="#c6c5fe" points="134.7485,-42.4444 136.9707,-42.4444 136.9707,-40.2222 134.7485,-40.2222 "/>
<text text-anchor="middle" x="182.7545" y="-45" font-family="Arial" font-size="10.00" fill="#c6c5fe">common/render.js</text>
</g>
<!-- common/render.js&#45;&gt;libs/lodash.js -->
<g id="edge3" class="edge">
<title>common/render.js&#45;&gt;libs/lodash.js</title>
<path fill="none" stroke="#757575" d="M230.809,-53.4849C245.6038,-56.3105 261.6378,-60.5749 275.509,-67 296.6614,-76.7978 317.2189,-93.8628 331.0291,-106.774"/>
<polygon fill="#757575" stroke="#757575" points="328.7034,-109.3935 338.3341,-113.8095 333.5593,-104.3516 328.7034,-109.3935"/>
</g>
<!-- common/separationRanks.js -->
<g id="node8" class="node">
<title>common/separationRanks.js</title>
<polygon fill="none" stroke="#c6c5fe" points="253.8846,-20 111.6244,-20 111.6244,-17.7778 109.4022,-17.7778 109.4022,-15.5556 111.6244,-15.5556 111.6244,-4.4444 109.4022,-4.4444 109.4022,-2.2222 111.6244,-2.2222 111.6244,0 253.8846,0 253.8846,-20"/>
<polyline fill="none" stroke="#c6c5fe" points="111.6244,-17.7778 113.8467,-17.7778 113.8467,-15.5556 111.6244,-15.5556 "/>
<polyline fill="none" stroke="#c6c5fe" points="111.6244,-4.4444 113.8467,-4.4444 113.8467,-2.2222 111.6244,-2.2222 "/>
<text text-anchor="middle" x="182.7545" y="-7" font-family="Arial" font-size="10.00" fill="#c6c5fe">common/separationRanks.js</text>
</g>
<!-- common/separationRanks.js&#45;&gt;libs/lodash.js -->
<g id="edge4" class="edge">
<title>common/separationRanks.js&#45;&gt;libs/lodash.js</title>
<path fill="none" stroke="#757575" d="M254.1902,-19.1068C261.6955,-21.6578 268.9638,-24.8955 275.509,-29 305.0968,-47.5545 327.1562,-82.7495 338.8041,-104.7009"/>
<polygon fill="#757575" stroke="#757575" points="335.7547,-106.4258 343.4128,-113.7474 341.992,-103.2482 335.7547,-106.4258"/>
</g>
<!-- main.js -->
<g id="node9" class="node">
<title>main.js</title>
<polygon fill="none" stroke="#c6c5fe" points="54,-134 0,-134 0,-131.7778 -2.2222,-131.7778 -2.2222,-129.5556 0,-129.5556 0,-118.4444 -2.2222,-118.4444 -2.2222,-116.2222 0,-116.2222 0,-114 54,-114 54,-134"/>
<polyline fill="none" stroke="#c6c5fe" points="0,-131.7778 2.2222,-131.7778 2.2222,-129.5556 0,-129.5556 "/>
<polyline fill="none" stroke="#c6c5fe" points="0,-118.4444 2.2222,-118.4444 2.2222,-116.2222 0,-116.2222 "/>
<text text-anchor="middle" x="27" y="-121" font-family="Arial" font-size="10.00" fill="#c6c5fe">main.js</text>
</g>
<!-- main.js&#45;&gt;../app&#45;components/youtube/youtube.js -->
<g id="edge5" class="edge">
<title>main.js&#45;&gt;../app&#45;components/youtube/youtube.js</title>
<path fill="none" stroke="#757575" d="M30.6959,-134.2385C38.4055,-154.0409 58.1757,-197.5238 90,-219 92.5739,-220.737 95.273,-222.321 98.0648,-223.7653"/>
<polygon fill="#757575" stroke="#757575" points="96.7025,-226.9904 107.2566,-227.9184 99.5847,-220.6113 96.7025,-226.9904"/>
</g>
<!-- main.js&#45;&gt;common/ajax.js -->
<g id="edge6" class="edge">
<title>main.js&#45;&gt;common/ajax.js</title>
<path fill="none" stroke="#757575" d="M35.203,-134.2294C46.2276,-147.2398 67.1036,-169.4056 90,-181 102.1533,-187.1542 116.1586,-191.3151 129.5431,-194.1282"/>
<polygon fill="#757575" stroke="#757575" points="129.141,-197.614 139.6164,-196.0274 130.438,-190.7352 129.141,-197.614"/>
</g>
<!-- main.js&#45;&gt;common/detectIE.js -->
<g id="edge7" class="edge">
<title>main.js&#45;&gt;common/detectIE.js</title>
<path fill="none" stroke="#757575" d="M54.1381,-132.7738C65.1983,-136.1951 78.1487,-140.0057 90,-143 99.8011,-145.4763 110.2462,-147.8594 120.4602,-150.0511"/>
<polygon fill="#757575" stroke="#757575" points="120.0586,-153.5431 130.5648,-152.1754 121.4988,-146.6929 120.0586,-153.5431"/>
</g>
<!-- main.js&#45;&gt;common/locationSearch.js -->
<g id="edge8" class="edge">
<title>main.js&#45;&gt;common/locationSearch.js</title>
<path fill="none" stroke="#757575" d="M54.1304,-124C68.6847,-124 87.4274,-124 106.0782,-124"/>
<polygon fill="#757575" stroke="#757575" points="106.1005,-127.5001 116.1005,-124 106.1004,-120.5001 106.1005,-127.5001"/>
</g>
<!-- main.js&#45;&gt;common/ready.js -->
<g id="edge9" class="edge">
<title>main.js&#45;&gt;common/ready.js</title>
<path fill="none" stroke="#757575" d="M54.1381,-115.2262C65.1983,-111.8049 78.1487,-107.9943 90,-105 101.7036,-102.043 114.3254,-99.219 126.3755,-96.695"/>
<polygon fill="#757575" stroke="#757575" points="127.2397,-100.0906 136.3304,-94.649 125.8305,-93.2339 127.2397,-100.0906"/>
</g>
<!-- main.js&#45;&gt;common/render.js -->
<g id="edge10" class="edge">
<title>main.js&#45;&gt;common/render.js</title>
<path fill="none" stroke="#757575" d="M35.203,-113.7706C46.2276,-100.7602 67.1036,-78.5944 90,-67 100.6547,-61.6046 112.7329,-57.7413 124.5684,-54.9751"/>
<polygon fill="#757575" stroke="#757575" points="125.353,-58.3867 134.4165,-52.8999 123.9096,-51.5371 125.353,-58.3867"/>
</g>
<!-- main.js&#45;&gt;common/separationRanks.js -->
<g id="edge11" class="edge">
<title>main.js&#45;&gt;common/separationRanks.js</title>
<path fill="none" stroke="#757575" d="M30.6959,-113.7615C38.4055,-93.9591 58.1757,-50.4762 90,-29 93.781,-26.4484 97.8322,-24.2268 102.0506,-22.2935"/>
<polygon fill="#757575" stroke="#757575" points="103.5295,-25.4716 111.5124,-18.5057 100.9279,-18.973 103.5295,-25.4716"/>
</g>
</g>
</svg>
